# File produced by Open Asset Import Library (http://www.assimp.sf.net)
# (assimp v5.0.1588609223)

mtllib result.mtl

# 16 vertex positions
v  -0.31368256 -0.5 0.31368256
v  -0.5 -0.31368256 0.5
v  -0.5 -0.31368256 -0.5
v  -0.31368256 -0.5 -0.31368256
v  0.31368256 -0.5 0.31368446
v  0.5 -0.31368256 0.5
v  0.31368256 -0.5 -0.31368256
v  0.5 -0.31368256 -0.5
v  -0.5 0.31368256 0.5
v  -0.31368256 0.5 0.31368256
v  -0.31368256 0.5 -0.31368256
v  -0.5 0.31368256 -0.5
v  0.5 0.31368256 0.5
v  0.31368256 0.5 0.31368446
v  0.5 0.31368256 -0.5
v  0.31368256 0.5 -0.31368256

# 29 UV coordinates
vt 0.013539433 0.018121222 0
vt 0.037953556 0.0093853585 0
vt 0.037953556 0.056272436 0
vt 0.013539314 0.047536574 0
vt 0.037953556 0.056272298 0
vt 0.013539314 0.047536451 0
vt 0.013539195 0.018121161 0
vt 0.037953496 0.0093853585 0
vt 0.037953734 0.0093853585 0
vt 0.013539433 0.047536574 0
vt 0.037953556 0.056272358 0
vt 0.013539195 0.018121222 0
vt 0.11791978 0.80648178 0
vt 0.25682387 0.80648178 0
vt 0.25682387 0.88286394 0
vt 0.11791978 0.88286394 0
vt 0.29142606 0.89649618 0
vt 0.20981987 0.89649618 0
vt 0.20981987 0.97810215 0
vt 0.29142606 0.97810233 0
vt 0.29142636 0.97810233 0
vt 0.20982005 0.97810233 0
vt 0.20981987 0.89649636 0
vt 0.29142594 0.89649618 0
vt 0.11791978 0.80648202 0
vt 0.25682402 0.80648202 0
vt 0.25682402 0.88286418 0
vt 0.11791978 0.88286418 0
vt 0.11791995 0.88286394 0

# 18 vertex normals
vn -0.70710677 -0.70710677 0
vn 0 -0.70710629 0.70710725
vn 0 -0.70710677 0.70710677
vn 0.70710629 -0.70710725 0
vn -0.70710677 0.70710677 0
vn 0 0.70710629 0.70710725
vn 0 0.70710677 0.70710677
vn 0.70710629 0.70710725 0
vn 9.9999966e-07 0.70710677 -0.70710677
vn 1.0000003e-06 0.70710629 -0.70710725
vn 1.0000003e-06 -0.70710629 -0.70710725
vn 9.9999966e-07 -0.70710582 -0.70710778
vn -1e-06 0 1
vn 0 1 0
vn 1e-06 0 -1
vn 0 -1 0
vn 1 0 0
vn -1 0 0

# Mesh 'Beveled_cube:Mesh' with 14 faces
g Beveled_cube:Mesh
usemtl lambert1
f  1/1/1 2/2/1 3/3/1 4/4/1
f  2/5/2 1/6/3 5/7/3 6/8/3
f  6/5/4 5/4/4 7/1/4 8/9/4
f  9/2/5 10/1/5 11/10/5 12/3/5
f  10/10/6 9/11/6 13/2/7 14/1/7
f  14/6/8 13/11/8 15/8/8 16/12/8
f  12/11/9 11/4/9 16/12/10 15/8/10
f  4/10/11 3/11/12 8/2/12 7/1/11
f  2/13/13 6/14/13 13/15/13 9/16/13
f  10/17/14 14/18/14 16/19/14 11/20/14
f  12/15/15 15/16/15 8/13/15 3/14/15
f  4/21/16 7/22/16 5/23/16 1/24/16
f  6/25/17 8/26/17 15/27/17 13/28/17
f  3/13/18 2/26/18 9/27/18 12/29/18

